HIERARCHY
ROOT hip
{
  OFFSET 0 0 0
  CHANNELS 6 Xposition Yposition Zposition Zrotation Yrotation Xrotation
  JOINT abdomen
  {
    OFFSET 0 20.6881 -0.73152
    CHANNELS 3 Zrotation Xrotation Yrotation
    JOINT chest
    {
      OFFSET 0 11.7043 -0.48768
      CHANNELS 3 Zrotation Xrotation Yrotation
      JOINT neck
      {
        OFFSET 0 22.1894 -2.19456
        CHANNELS 3 Zrotation Xrotation Yrotation
        JOINT head
        {
          OFFSET -0.24384 7.07133 1.2192
          CHANNELS 3 Zrotation Xrotation Yrotation
          JOINT leftEye
          {
            OFFSET 4.14528 8.04674 8.04672
            CHANNELS 3 Zrotation Xrotation Yrotation
            End Site
            {
              OFFSET 1 0 0
            }
          }
          JOINT rightEye
          {
            OFFSET -3.6576 8.04674 8.04672
            CHANNELS 3 Zrotation Xrotation Yrotation
            End Site
            {
              OFFSET 1 0 0
            }
          }
        }
      }
      JOINT rCollar
      {
        OFFSET -2.68224 19.2634 -4.8768
        CHANNELS 3 Zrotation Xrotation Yrotation
        JOINT rShldr
        {
          OFFSET -8.77824 -1.95073 1.46304
          CHANNELS 3 Zrotation Xrotation Yrotation
          JOINT rForeArm
          {
            OFFSET -28.1742 -1.7115 0.48768
            CHANNELS 3 Zrotation Xrotation Yrotation
            JOINT rHand
            {
              OFFSET -22.5879 0.773209 7.07136
              CHANNELS 3 Zrotation Xrotation Yrotation
              JOINT rThumb1
              {
                OFFSET -1.2192 -0.487915 3.41376
                CHANNELS 3 Zrotation Xrotation Yrotation
                JOINT rThumb2
                {
                  OFFSET -3.37035 -0.52449 3.41376
                  CHANNELS 3 Zrotation Xrotation Yrotation
                  End Site
                  {
                    OFFSET -1.78271 -1.18214 1.43049
                  }
                }
              }
              JOINT rIndex1
              {
                OFFSET -7.75947 0.938293 5.60832
                CHANNELS 3 Zrotation Xrotation Yrotation
                JOINT rIndex2
                {
                  OFFSET -2.54057 -0.884171 1.56538
                  CHANNELS 3 Zrotation Xrotation Yrotation
                  End Site
                  {
                    OFFSET -1.62519 -0.234802 1.16502
                  }
                }
              }
              JOINT rMid1
              {
                OFFSET -8.24714 1.18213 3.41376
                CHANNELS 3 Zrotation Xrotation Yrotation
                JOINT rMid2
                {
                  OFFSET -3.10165 -0.590103 1.0647
                  CHANNELS 3 Zrotation Xrotation Yrotation
                  End Site
                  {
                    OFFSET -2.48547 -0.328903 0.83742
                  }
                }
              }
              JOINT rRing1
              {
                OFFSET -8.82822 0.546677 1.51678
                CHANNELS 3 Zrotation Xrotation Yrotation
                JOINT rRing2
                {
                  OFFSET -2.60934 -0.819778 -0.0198488
                  CHANNELS 3 Zrotation Xrotation Yrotation
                  End Site
                  {
                    OFFSET -2.33842 -0.294052 0.168128
                  }
                }
              }
              JOINT rPinky1
              {
                OFFSET -8.27202 -0.0477905 -0.4584
                CHANNELS 3 Zrotation Xrotation Yrotation
                JOINT rPinky2
                {
                  OFFSET -1.82734 -0.647385 -0.700984
                  CHANNELS 3 Zrotation Xrotation Yrotation
                  End Site
                  {
                    OFFSET -1.69225 -0.51767 -0.607171
                  }
                }
              }
            }
          }
        }
      }
      JOINT lCollar
      {
        OFFSET 2.68224 19.2634 -4.8768
        CHANNELS 3 Zrotation Xrotation Yrotation
        JOINT lShldr
        {
          OFFSET 8.77824 -1.95073 1.46304
          CHANNELS 3 Zrotation Xrotation Yrotation
          JOINT lForeArm
          {
            OFFSET 28.1742 -1.7115 0.48768
            CHANNELS 3 Zrotation Xrotation Yrotation
            JOINT lHand
            {
              OFFSET 22.5879 0.773209 7.07136
              CHANNELS 3 Zrotation Xrotation Yrotation
              JOINT lThumb1
              {
                OFFSET 1.2192 -0.487915 3.41376
                CHANNELS 3 Zrotation Xrotation Yrotation
                JOINT lThumb2
                {
                  OFFSET 3.37035 -0.52449 3.41376
                  CHANNELS 3 Zrotation Xrotation Yrotation
                  End Site
                  {
                    OFFSET 1.78271 -1.18214 1.43049
                  }
                }
              }
              JOINT lIndex1
              {
                OFFSET 7.75947 0.938293 5.60832
                CHANNELS 3 Zrotation Xrotation Yrotation
                JOINT lIndex2
                {
                  OFFSET 2.54057 -0.884171 1.56538
                  CHANNELS 3 Zrotation Xrotation Yrotation
                  End Site
                  {
                    OFFSET 1.62519 -0.234802 1.16502
                  }
                }
              }
              JOINT lMid1
              {
                OFFSET 8.24714 1.18213 3.41376
                CHANNELS 3 Zrotation Xrotation Yrotation
                JOINT lMid2
                {
                  OFFSET 3.10165 -0.590103 1.0647
                  CHANNELS 3 Zrotation Xrotation Yrotation
                  End Site
                  {
                    OFFSET 2.48547 -0.328903 0.83742
                  }
                }
              }
              JOINT lRing1
              {
                OFFSET 8.82822 0.546677 1.51678
                CHANNELS 3 Zrotation Xrotation Yrotation
                JOINT lRing2
                {
                  OFFSET 2.60934 -0.819778 -0.0198488
                  CHANNELS 3 Zrotation Xrotation Yrotation
                  End Site
                  {
                    OFFSET 2.33842 -0.294052 0.168128
                  }
                }
              }
              JOINT lPinky1
              {
                OFFSET 8.27202 -0.0477905 -0.4584
                CHANNELS 3 Zrotation Xrotation Yrotation
                JOINT lPinky2
                {
                  OFFSET 1.82734 -0.647385 -0.700984
                  CHANNELS 3 Zrotation Xrotation Yrotation
                  End Site
                  {
                    OFFSET 1.69225 -0.51767 -0.607171
                  }
                }
              }
            }
          }
        }
      }
    }
  }
  JOINT rButtock
  {
    OFFSET -8.77824 4.35084 1.2192
    CHANNELS 3 Zrotation Xrotation Yrotation
    JOINT rThigh
    {
      OFFSET 0 -1.70687 -2.19456
      CHANNELS 3 Zrotation Xrotation Yrotation
      JOINT rShin
      {
        OFFSET 0 -36.8199 0.73152
        CHANNELS 3 Zrotation Xrotation Yrotation
        JOINT rFoot
        {
          OFFSET 0.73152 -45.1104 -5.12064
          CHANNELS 3 Zrotation Xrotation Yrotation
          End Site
          {
            OFFSET -1.1221 -3.69964 12.103
          }
        }
      }
    }
  }
  JOINT lButtock
  {
    OFFSET 8.77824 4.35084 1.2192
    CHANNELS 3 Zrotation Xrotation Yrotation
    JOINT lThigh
    {
      OFFSET 0 -1.70687 -2.19456
      CHANNELS 3 Zrotation Xrotation Yrotation
      JOINT lShin
      {
        OFFSET 0 -36.8199 0.73152
        CHANNELS 3 Zrotation Xrotation Yrotation
        JOINT lFoot
        {
          OFFSET -0.73152 -45.1104 -5.12064
          CHANNELS 3 Zrotation Xrotation Yrotation
          End Site
          {
            OFFSET 1.1221 -3.69964 12.103
          }
        }
      }
    }
  }
}
MOTION
Frames:	5
Frame Time:	0.03333
0.0 0.0 0.0 0.0 0.0 0.0 0.0 0.0 0.0 0.0 0.0 0.0 0.0 0.0 0.0 0.0 0.0 0.0 0.0 0.0 0.0 0.0 0.0 0.0 0.0 0.0 0.0 0.0 0.0 0.0 0.0 0.0 0.0 0.0 0.0 0.0 0.0 0.0 0.0 0.0 0.0 0.0 0.0 0.0 0.0 0.0 0.0 0.0 0.0 0.0 0.0 0.0 0.0 0.0 0.0 0.0 0.0 0.0 0.0 0.0 0.0 0.0 0.0 0.0 0.0 0.0 0.0 0.0 0.0 0.0 0.0 0.0 0.0 0.0 0.0 0.0 0.0 0.0 0.0 0.0 0.0 0.0 0.0 0.0 0.0 0.0 0.0 0.0 0.0 0.0 0.0 0.0 0.0 0.0 0.0 0.0 0.0 0.0 0.0 0.0 0.0 0.0 0.0 0.0 0.0 0.0 0.0 0.0 0.0 0.0 0.0 0.0 0.0 0.0 0.0 0.0 0.0 0.0 0.0 0.0 0.0 0.0 0.0 0.0 0.0 0.0 0.0 0.0 0.0 0.0 0.0 0.0
-1.5674000000000001 53.39660000000001 0.10660000000000001 8.209532 -47.210049 -7.30895 -12.500295 8.240983 -94.288221 5.513905 4.37387 100.261836 -9.400605 16.379667 -10.605022 9.126416 -23.222638 -25.4351 0.00202 -0.0 -0.001503 -0.002567 -0.0 0.005058 -155.578644 -3.999558 161.940961 159.453118 18.356025 -166.963429 -176.455249 -0.193743 112.715184 152.047836 -40.469114 136.808617 -4.904242 4.762459 0.952185 -111.909086 -2.114267 101.382335 -46.20861 39.652935 36.318181 -161.983775 -7.275374 111.999463 -39.287803 53.366515 32.87753 80.708324 -77.893754 52.075998 -145.119435 0.267999 -179.211953 11.5421 20.329244 -6.652585 -152.201779 37.330373 -147.581208 -155.826417 36.244997 -146.0313 6.251511 26.219244 -7.467576 -109.879488 83.805806 30.490826 27.53097 -70.339195 -71.57022 6.438798 -21.882594 5.384395 175.774549 -13.411047 -89.764661 39.999083 -21.986918 -3.651317 148.88518 -12.609473 -120.246046 8.573561 31.851316 -0.23273 167.37482 -28.008615 -145.268837 -129.739869 -76.76094 -98.967416 -0.002338 0.063713 -0.020834 155.436027 -1.332262 -172.007787 145.499362 13.103979 142.110495 -10.849615 24.75537 -3.782302 179.988698 75.750432 0.007733 148.511583 7.496603 91.390207 75.133435 3.289442 72.203506 -85.691511 -10.447996 175.002604 0.0 -0.00079 0.001058 16.516533 4.432428 -0.976347 -8.674137 49.838169 -55.300832 173.665439 11.43313 -99.152089
-2.131 53.432599999999994 0.2131 8.669442 -47.004882 -6.800865 -13.056291 6.517253 -116.078908 2.593345 5.735931 121.599659 -16.18195 24.204463 -67.534534 34.196216 -2.239267 31.377325 -0.000861 -0.0 0.000644 -0.0008 0.0 -0.000389 -33.834017 -85.666065 -55.250698 -136.806594 -4.72109 -158.573274 -9.384087 53.048337 -54.306831 144.640181 -48.347649 130.522147 0.967559 -0.957874 -0.140219 24.988051 -42.534104 -17.278087 -151.354082 -17.158675 121.131879 -5.459885 28.655257 -1.600199 0.047182 -0.138824 -0.024888 168.928903 -63.347803 133.936234 -66.265549 72.868673 83.83664 -159.831546 -0.833741 176.210667 -26.563231 -38.862042 -25.603705 -23.851767 -41.264581 -25.390288 -4.23861 -44.742751 8.648538 -105.466035 33.155603 86.890861 -174.862788 8.530968 -44.377075 165.058925 15.64026 -138.32622 0.441854 0.43516 -0.069603 127.904771 -23.066264 -113.658384 50.386425 40.825601 -40.025506 -11.93625 -8.407973 3.576542 -5.893822 -18.351879 2.54335 -80.535809 -77.994687 -52.140188 0.000543 0.06399 -0.019098 -6.907916 29.711986 -4.67895 130.652066 -21.109877 128.23816 -34.685883 74.501265 -0.263031 -0.001672 0.001539 -0.002508 -56.173336 -52.59104 -50.513294 6.10943 66.973152 72.267283 16.610092 -61.311488 -79.459557 179.994656 75.749918 0.005514 -121.615713 71.945997 -0.0 40.76988 27.265417 -112.042554 22.398277 -18.081975 82.046434
-2.6262 53.4623 0.3302 9.596043 -47.128524 -6.946354 -13.485301 6.165144 -114.12458 2.897939 5.481984 119.519314 5.436156 28.730462 115.340254 -30.471784 25.806847 -148.668684 -0.000214 -0.0 0.000557 -0.000214 -0.0 0.000557 -155.80933 -5.555472 162.266644 154.613133 34.505105 -164.049546 91.975699 -39.888307 58.461442 -178.784093 34.81869 151.044389 -176.297271 -13.919092 89.718132 146.962926 -48.286205 101.093289 -2.68609 4.226935 1.583024 -161.370159 -12.741237 110.099013 -10.977335 25.789471 7.640922 2.765311 1.665527 0.224233 -71.538419 -72.141197 -88.495913 -64.908315 -82.405444 -90.865602 -75.777865 -51.667237 -74.24997 -24.076091 -40.968566 -26.068254 -3.541822 -62.053054 13.039328 -99.920061 33.655 100.776362 6.282614 6.793576 -102.666937 7.02467 -22.057725 5.548874 8.203926 7.847971 -1.807779 -9.574557 -10.005751 1.733496 157.327872 -28.217519 -122.490227 133.26108 32.056852 -108.434627 -23.903934 -61.333794 -1.401066 163.440004 -4.703557 -143.232629 74.390864 -72.13407 91.483572 149.832124 -27.100323 179.857475 -32.637049 83.588175 -5.704121 24.350251 -39.518074 24.412474 179.990238 75.749588 0.00668 150.534173 5.617098 -85.445943 -65.029499 -3.884101 91.917591 -63.642742 -12.808745 28.584808 -0.0 5.4e-05 0.000913 15.829422 5.753698 -0.0 8.830042 46.472875 43.584807 -90.25027 -1.898729 -7.230577
-3.0892 53.488400000000006 0.4373 10.530564 -47.41525 -7.376284 -13.876792 7.169912 -89.318429 5.952472 3.398464 94.977164 5.316564 29.23161 117.59043 -30.083589 27.24564 -150.589129 0.001568 -0.0 -0.002207 0.002835 0.0 0.002283 -147.670847 29.08458 152.475159 -31.987742 13.363166 4.965521 177.006064 5.508579 -149.61743 -12.608964 52.145892 6.166837 -173.769902 -11.440353 89.890705 -9.793778 -49.233665 3.750788 -46.208419 39.653484 36.317607 88.518242 -62.993542 40.711686 23.900969 -61.334346 1.397185 -34.637189 55.070731 29.0854 -145.06433 -3.223909 -178.112991 2.988916 -43.652389 -17.833191 -86.000325 -50.498586 -84.37128 -146.16747 10.85518 -142.458251 142.973589 39.431726 -147.390343 3.924481 -5.993753 -76.992318 178.691615 -77.501743 81.851044 9.765744 -12.456971 4.422957 -179.143594 -18.272792 -89.129309 91.000688 15.470475 -34.231578 -159.641787 -69.97342 -102.396289 6.608243 33.415164 -3.94865 -23.906597 -61.333327 -1.401508 146.000084 35.193864 -132.631057 145.123751 1.080691 179.467204 155.615343 1.230633 179.381683 -1.482537 4.003557 -1.360943 165.304718 69.54536 149.086846 179.986377 75.74878 0.01202 148.317763 4.852372 82.195907 65.678855 11.218348 -51.171592 51.948715 -26.392947 -29.139858 -179.984772 75.74878 -0.010419 -121.008556 73.655684 53.626542 41.388493 -18.63295 -77.863362 89.392472 -8.48934 -4.381004
